 <svg  version="1.0" xmlns="http://www.w3.org/2000/svg"  width="300.000000pt" height="300.000000pt" viewBox="0 0 350.000000 350.000000"  preserveAspectRatio="xMidYMid meet">  <g transform="translate(0.000000,300.000000) scale(0.100000,-0.100000)" fill="#949494" stroke="none"> <path d="M1327 2990 c-167 -19 -347 -75 -510 -156 -263 -132 -521 -394 -659 -667 -52 -104 -112 -288 -134 -407 -24 -129 -24 -391 0 -520 55 -306 195 -571 420 -795 224 -224 458 -350 770 -417 145 -31 427 -31 572 0 207 44 391 122 556 233 129 88 316 276 401 404 340 515 340 1155 0 1670 -85 128 -272 316 -401 404 -166 112 -353 190 -556 232 -116 23 -338 33 -459 19z m408 -25 c319 -50 604 -201 837 -443 483 -503 547 -1265 156 -1853 -85 -129 -272 -315 -404 -402 -507 -335 -1141 -335 -1648 0 -132 87 -319 273 -404 402 -297 446 -337 1003 -107 1477 141 292 410 559 696 693 282 132 568 173 874 126z"/> <path d="M1622 2873 c-7 -3 -19 -18 -27 -34 -9 -16 -23 -29 -33 -29 -14 0 -14 -2 -3 -9 13 -8 12 -18 -4 -73 -21 -73 -34 -95 -45 -77 -4 6 -13 8 -19 5 -16 -10 -4 -26 19 -26 27 0 56 42 70 101 9 36 18 53 31 56 11 3 19 10 19 15 0 5 -4 6 -10 3 -13 -8 -13 26 1 45 8 11 12 12 16 3 5 -14 33 -18 33 -5 0 9 -22 32 -29 31 -4 0 -12 -3 -19 -6z"/> <path d="M1374 2783 c-19 -20 -24 -36 -22 -62 3 -32 6 -36 34 -39 20 -2 36 4 49 18 20 22 14 26 -14 8 -19 -12 -51 -5 -51 11 0 5 17 18 38 28 47 23 58 63 17 63 -15 0 -36 -11 -51 -27z m56 8 c0 -12 -29 -41 -41 -41 -14 0 -11 11 8 32 17 19 33 24 33 9z"/> <path d="M1290 2792 c0 -4 5 -13 11 -19 8 -8 6 -20 -7 -44 l-17 -34 -14 48 c-14 47 -25 55 -53 37 -13 -8 -13 -10 2 -10 12 0 22 -16 33 -55 9 -30 21 -53 26 -49 16 10 49 82 49 109 0 16 -6 25 -15 25 -8 0 -15 -4 -15 -8z"/> <path d="M1690 2793 c-28 -10 -70 -57 -70 -78 0 -49 61 -61 103 -20 34 35 40 62 16 86 -20 20 -24 21 -49 12z m40 -28 c0 -27 -29 -73 -50 -80 -45 -14 -49 27 -7 73 24 25 57 29 57 7z"/> <path d="M1112 2747 c-33 -35 -39 -80 -13 -106 28 -28 61 -15 85 34 36 72 -19 128 -72 72z m52 -3 c18 -48 -6 -113 -38 -101 -21 8 -21 65 0 95 18 26 30 28 38 6z"/> <path d="M1799 2761 c12 -8 9 -18 -17 -58 -41 -63 -23 -68 30 -8 27 31 43 42 48 34 8 -12 30 -4 30 12 0 13 -34 11 -49 -3 -11 -11 -12 -9 -6 10 5 19 3 22 -22 22 -20 0 -24 -3 -14 -9z"/> <path d="M1905 2730 c3 -5 -3 -34 -13 -65 -10 -30 -17 -55 -14 -55 2 0 21 14 42 30 21 17 41 30 44 30 3 0 -1 -18 -10 -40 -9 -23 -15 -43 -12 -45 10 -10 113 61 113 78 0 9 -4 17 -10 16 -5 0 -9 -6 -7 -14 2 -11 -46 -55 -62 -55 -3 0 1 19 9 41 21 59 19 64 -17 37 -57 -43 -59 -43 -43 1 7 21 11 42 8 45 -10 10 -35 7 -28 -4z"/> <path d="M1002 2718 c-7 -7 -12 -19 -11 -27 0 -11 2 -12 6 -3 10 25 22 11 29 -33 3 -25 11 -48 17 -52 11 -6 37 23 37 41 0 6 -6 2 -12 -9 -11 -18 -13 -14 -22 34 -11 57 -23 70 -44 49z"/> <path d="M943 2688 c-6 -7 -14 -22 -18 -33 -8 -19 -9 -19 -12 2 -4 19 -7 21 -24 10 -10 -6 -19 -15 -19 -20 0 -4 4 -6 9 -3 11 7 21 -17 21 -49 0 -30 10 -55 21 -55 5 0 9 22 9 49 0 91 24 112 35 31 9 -64 31 -63 26 1 -5 67 -25 96 -48 67z"/> <path d="M2068 2614 c-38 -20 -51 -46 -34 -69 9 -13 20 -16 38 -12 23 6 25 4 21 -13 -6 -22 20 -28 47 -10 12 8 12 10 -5 10 -16 0 -12 7 20 40 21 22 37 41 34 42 -52 32 -79 35 -121 12z m85 0 c12 -13 -15 -46 -50 -61 -46 -19 -66 -4 -37 28 27 30 72 47 87 33z"/> <path d="M734 2554 c-17 -40 -13 -74 12 -98 20 -21 37 -20 56 2 19 22 30 52 19 52 -5 0 -11 -9 -14 -20 -3 -12 -14 -20 -26 -20 -24 0 -27 17 -6 44 8 11 15 32 15 48 0 44 -37 38 -56 -8z m36 -8 c0 -27 -15 -42 -25 -26 -8 13 3 50 16 50 5 0 9 -11 9 -24z"/> <path d="M2224 2562 c6 -10 -36 -51 -72 -71 -9 -5 -13 -13 -9 -17 9 -10 98 37 91 47 -2 4 3 12 12 17 15 9 15 11 -6 22 -12 7 -20 7 -16 2z"/> <path d="M2264 2514 c9 -8 20 -12 26 -9 15 9 2 25 -21 25 -19 0 -19 -1 -5 -16z"/> <path d="M657 2514 c-11 -12 -8 -24 7 -24 14 0 26 -29 26 -64 0 -17 -5 -15 -33 12 -37 36 -51 40 -43 15 2 -10 8 -34 11 -53 l7 -35 -31 29 c-25 24 -33 27 -46 16 -19 -16 -20 -31 -1 -24 8 3 32 -10 54 -30 22 -20 42 -36 45 -36 3 0 -1 21 -9 47 -20 67 -18 71 21 33 19 -18 37 -31 40 -29 2 3 0 32 -5 64 -9 57 -29 93 -43 79z"/> <path d="M1636 2503 c-12 -3 -15 -8 -8 -12 8 -5 5 -32 -12 -94 -21 -82 -22 -97 -6 -97 7 0 35 80 32 92 -1 3 5 28 13 55 21 68 22 66 -19 56z"/> <path d="M2424 2482 c3 -5 -6 -18 -21 -27 -24 -16 -27 -16 -35 -1 -12 21 -86 21 -116 0 -12 -8 -22 -24 -22 -34 0 -21 27 -40 47 -33 7 3 9 -3 6 -16 -5 -18 -1 -21 28 -20 26 0 29 2 15 8 -15 6 -5 16 58 55 42 26 76 49 76 51 0 3 -10 9 -21 16 -12 6 -19 7 -15 1z m-68 -34 c12 -18 -35 -49 -70 -46 -41 4 -39 19 4 40 41 21 56 22 66 6z"/> <path d="M1042 2445 c-13 -13 -18 -25 -13 -27 7 -2 5 -20 -4 -52 -19 -62 -6 -82 28 -46 12 13 14 18 5 11 -21 -16 -21 -14 -7 45 8 29 17 44 28 44 12 0 13 2 3 8 -7 5 -10 16 -6 25 9 23 -6 20 -34 -8z"/> <path d="M1546 2445 c-18 -14 -24 -24 -16 -27 10 -3 10 -14 0 -56 -8 -28 -10 -55 -6 -59 9 -9 38 9 45 28 3 12 2 12 -11 1 -15 -12 -15 -8 -4 34 8 30 19 50 31 55 11 4 15 8 8 8 -6 1 -13 10 -15 20 -3 18 -4 18 -32 -4z"/> <path d="M1126 2413 c-49 -49 -46 -105 8 -111 36 -4 86 45 86 85 0 57 -49 71 -94 26z m61 -44 c-16 -39 -42 -64 -57 -54 -14 9 -12 41 5 75 17 34 35 42 53 25 11 -10 11 -18 -1 -46z"/> <path d="M1283 2425 c-33 -23 -30 -63 4 -71 32 -8 54 4 71 40 16 32 15 34 -24 41 -18 4 -37 0 -51 -10z m47 -19 c0 -26 -24 -51 -40 -41 -15 9 -12 26 7 47 22 25 33 23 33 -6z"/> <path d="M1431 2424 c-28 -20 -50 -69 -43 -96 7 -26 47 -34 78 -13 30 19 26 33 -4 14 -11 -7 -27 -9 -36 -6 -23 9 -20 37 3 37 11 0 32 11 47 23 48 42 8 78 -45 41z m39 -23 c-10 -20 -39 -35 -48 -26 -8 8 40 55 49 49 5 -3 5 -13 -1 -23z"/> <path d="M1672 2424 c-12 -8 -22 -20 -22 -26 0 -6 9 -3 20 7 28 26 31 16 15 -40 -19 -61 -6 -81 28 -45 14 16 16 19 3 10 -18 -14 -18 -13 -10 20 18 79 7 103 -34 74z"/> <path d="M1792 2424 c-30 -21 -54 -70 -47 -94 9 -28 50 -36 81 -15 30 19 26 33 -4 14 -11 -7 -27 -9 -36 -6 -26 10 -18 35 13 42 35 8 66 39 58 60 -8 19 -36 19 -65 -1z m42 -18 c-6 -15 -54 -40 -54 -28 0 5 9 18 21 30 21 23 42 22 33 -2z"/> <path d="M1900 2430 c-9 -6 -10 -10 -3 -10 8 0 7 -15 -4 -55 -9 -31 -13 -58 -10 -61 9 -10 27 6 27 24 0 29 39 84 55 78 19 -7 30 13 16 27 -7 7 -16 5 -31 -8 -18 -16 -20 -16 -20 -2 0 19 -8 21 -30 7z"/> <path d="M1263 2332 c-4 -9 -12 -21 -20 -25 -20 -12 -16 -45 8 -57 27 -15 77 -3 90 21 13 24 8 32 -36 58 -33 19 -36 20 -42 3z m41 -28 c9 -3 16 -15 16 -25 0 -14 -7 -19 -29 -19 -33 0 -46 13 -37 35 6 16 24 19 50 9z"/> <path d="M2483 2243 c-70 -49 -80 -78 -40 -110 12 -10 23 -25 25 -33 9 -42 26 -41 97 6 92 61 89 58 70 88 l-17 25 -58 -39 c-62 -42 -80 -48 -80 -27 0 6 27 29 60 50 59 38 59 39 44 63 -9 13 -21 24 -28 23 -6 0 -39 -21 -73 -46z"/> <path d="M357 2179 c-35 -58 -37 -62 -20 -75 26 -19 31 -18 50 20 l18 35 70 -45 c107 -69 99 -66 118 -34 l17 28 -105 66 c-57 36 -106 66 -107 66 -2 0 -20 -28 -41 -61z"/> <path d="M794 2191 c-112 -90 -173 -181 -196 -296 l-11 -57 39 -33 39 -33 12 62 c17 84 64 174 122 236 38 41 52 64 63 111 10 40 11 59 4 59 -6 -1 -38 -23 -72 -49z m36 -30 c0 -11 -23 -46 -51 -78 -52 -59 -95 -135 -119 -210 -15 -48 -27 -54 -35 -20 -9 34 27 137 70 201 30 46 114 126 131 126 2 0 4 -9 4 -19z"/> <path d="M1428 2211 c-28 -25 -33 -36 -33 -76 0 -40 5 -51 33 -76 24 -22 42 -29 72 -29 30 0 48 7 72 29 28 25 33 36 33 76 0 40 -5 51 -33 76 -24 22 -42 29 -72 29 -30 0 -48 -7 -72 -29z m112 -29 c44 -36 17 -112 -41 -112 -35 0 -72 44 -63 74 7 27 41 56 64 56 10 0 28 -8 40 -18z"/> <path d="M2138 2181 c11 -47 25 -70 63 -111 58 -62 104 -152 121 -237 l13 -61 38 32 39 32 -11 60 c-21 114 -86 210 -201 299 -32 25 -63 45 -68 45 -4 0 -2 -27 6 -59z m104 -55 c59 -57 118 -150 118 -184 0 -12 5 -24 10 -27 11 -7 6 -67 -7 -88 -3 -6 -14 14 -24 45 -25 80 -64 149 -120 213 -44 51 -63 95 -40 95 5 0 33 -24 63 -54z"/> <path d="M903 2115 c-112 -85 -186 -205 -200 -326 -5 -39 -1 -52 23 -89 l29 -44 7 69 c9 94 61 198 129 259 28 25 55 46 59 46 4 0 13 24 20 53 6 28 14 60 17 70 7 27 -7 21 -84 -38z m41 -32 c-4 -15 -33 -51 -65 -81 -64 -59 -109 -131 -129 -204 -15 -58 -31 -55 -19 4 15 82 57 177 71 162 3 -3 5 1 5 9 -3 23 109 136 136 137 4 0 4 -12 1 -27z"/> <path d="M2015 2148 c3 -13 9 -43 14 -67 5 -25 18 -49 27 -54 88 -49 169 -184 182 -301 l7 -70 29 44 c24 37 28 50 23 89 -14 122 -91 245 -204 329 -39 29 -73 52 -77 52 -3 0 -4 -10 -1 -22z m135 -112 c27 -26 55 -61 62 -77 7 -16 16 -29 20 -29 5 0 7 -3 6 -7 0 -5 1 -15 4 -23 22 -63 28 -92 28 -126 -1 -47 -16 -28 -22 26 -5 53 -59 140 -123 198 -31 29 -60 65 -65 82 -8 29 -8 30 16 17 13 -7 46 -34 74 -61z"/> <path d="M2595 2081 c-22 -10 -49 -28 -59 -40 -17 -19 -18 -26 -7 -61 19 -63 68 -77 142 -40 51 26 66 58 49 100 -14 33 -45 60 -70 60 -8 0 -33 -9 -55 -19z m85 -54 c0 -12 -79 -57 -100 -57 -24 0 -7 31 28 49 43 23 72 26 72 8z"/> <path d="M281 2034 c-45 -58 -18 -117 65 -144 50 -17 79 -6 99 37 23 48 11 81 -40 110 -55 31 -98 30 -124 -3z m109 -59 c30 -16 32 -35 4 -35 -20 0 -94 38 -94 49 0 24 24 20 90 -14z"/> <path d="M948 1978 c-88 -87 -140 -180 -158 -286 -10 -62 -9 -74 6 -104 10 -18 25 -58 34 -88 l18 -54 29 59 c61 122 103 258 138 448 9 49 15 91 12 93 -2 3 -38 -28 -79 -68z m39 -30 c-13 -73 -18 -96 -33 -158 -8 -36 -19 -74 -24 -85 -5 -11 -18 -46 -30 -79 -11 -32 -27 -67 -34 -77 -12 -17 -14 -15 -34 25 -12 24 -22 61 -22 82 0 81 64 213 141 292 17 17 34 32 36 32 3 0 3 -15 0 -32z"/> <path d="M1161 1994 c-57 -62 -113 -172 -130 -252 -14 -68 -14 -186 0 -254 18 -86 74 -192 139 -261 l59 -64 68 34 c130 63 275 63 406 -1 l68 -33 59 64 c100 106 150 237 150 388 0 41 -5 98 -11 127 -17 82 -74 192 -132 254 l-53 57 -40 -27 c-142 -94 -345 -94 -486 -1 -20 14 -39 25 -42 25 -2 0 -27 -25 -55 -56z m113 -18 c133 -74 318 -74 457 1 48 26 49 26 70 7 47 -42 99 -134 123 -218 27 -92 29 -191 7 -273 l-11 -41 -30 15 c-17 8 -30 21 -30 29 0 8 -6 14 -12 14 -10 0 -14 36 -15 138 -3 145 -18 229 -46 246 -11 7 -26 7 -51 -2 -19 -7 -46 -10 -60 -6 -15 3 -33 0 -46 -9 -17 -11 -30 -13 -56 -5 -26 7 -42 5 -65 -6 -29 -15 -33 -14 -57 4 -33 26 -92 26 -126 -1 -14 -11 -26 -27 -26 -35 0 -8 -4 -14 -9 -14 -5 0 -7 -10 -4 -22 3 -17 2 -19 -5 -10 -11 17 -23 -107 -21 -216 1 -67 -8 -104 -18 -74 -3 6 -11 12 -19 12 -11 0 -14 24 -14 124 0 140 8 203 22 171 5 -12 6 -1 2 30 -7 61 -18 75 -57 75 -29 0 -30 1 -11 15 14 10 15 14 5 15 -16 0 36 60 51 60 5 0 28 -11 52 -24z m-68 -128 c-20 -119 -27 -222 -21 -299 l7 -86 44 5 c42 4 44 3 44 -20 0 -14 3 -39 6 -55 6 -29 6 -29 -62 -42 -54 -10 -69 -10 -75 0 -15 25 -39 185 -39 259 0 76 13 173 31 243 9 33 13 37 41 37 30 0 31 0 24 -42z m595 -40 c7 -40 13 -135 12 -210 l0 -138 40 0 c36 0 39 -2 33 -22 -3 -13 -9 -40 -12 -60 -7 -43 -5 -42 -90 -26 l-63 11 7 31 c9 41 9 402 0 443 -7 29 -5 32 20 36 15 2 30 5 34 6 3 0 12 -32 19 -71z m-368 42 c26 -20 31 -36 41 -127 l5 -43 -40 0 -41 0 6 38 c7 45 -6 74 -26 54 -18 -18 -18 -296 0 -314 20 -20 33 8 30 65 l-3 47 39 0 39 0 -7 -67 c-8 -81 -22 -112 -58 -133 -25 -13 -31 -13 -55 0 -49 27 -67 81 -71 211 -5 145 10 222 48 261 34 33 58 35 93 8z m168 -85 c9 -49 21 -115 26 -145 l10 -55 1 50 c0 28 -3 94 -7 148 l-6 97 31 0 c30 0 31 -2 38 -52 8 -69 8 -332 0 -392 -7 -46 -7 -46 -45 -46 -38 0 -39 1 -39 38 0 53 -28 253 -36 261 -4 3 -4 -22 0 -56 4 -34 4 -102 0 -151 l-7 -89 -28 1 -29 1 0 240 0 241 37 -1 37 0 17 -90z m-506 -134 c0 -127 -3 -187 -10 -180 -5 6 -13 58 -16 117 -3 59 -6 101 -7 93 -1 -8 -5 -11 -8 -8 -4 4 -2 12 3 19 5 7 11 31 12 53 1 22 6 44 11 49 6 6 10 18 10 28 0 10 1 18 3 18 1 0 2 -85 2 -189z m345 19 c0 11 3 11 12 2 8 -8 15 -9 25 -1 10 9 13 4 13 -25 0 -20 -4 -36 -10 -36 -5 0 -10 7 -10 15 0 8 -5 15 -11 15 -6 0 -9 -6 -6 -14 5 -14 -36 -29 -48 -18 -7 7 -6 47 2 68 6 16 7 16 20 -2 9 -12 13 -14 13 -4z m54 -276 c6 -8 25 -15 41 -14 72 2 176 -7 210 -19 17 -6 48 -13 70 -17 22 -4 35 -9 28 -11 -7 -2 -10 -10 -7 -16 2 -7 -11 -28 -30 -46 -38 -37 -41 -37 -141 0 -40 14 -90 23 -150 25 -79 3 -101 0 -178 -26 -48 -17 -94 -30 -100 -30 -17 0 -77 65 -77 83 0 14 40 27 85 27 12 0 33 9 47 20 18 13 28 16 36 8 6 -6 34 -10 62 -10 40 0 55 4 68 21 20 25 22 25 36 5z"/> <path d="M1970 2040 c0 -31 53 -267 76 -341 15 -46 44 -122 66 -169 l40 -85 17 55 c10 30 25 70 35 89 15 29 16 41 6 100 -14 80 -48 158 -99 226 -43 57 -141 144 -141 125z m76 -88 c105 -100 170 -285 128 -363 -10 -19 -18 -37 -19 -41 -2 -44 -55 49 -82 145 -39 140 -70 287 -60 287 2 0 17 -12 33 -28z"/> <path d="M2640 1892 c-63 -19 -116 -36 -118 -37 -1 -1 3 -16 9 -33 10 -30 11 -30 44 -16 43 18 50 18 35 -1 -6 -8 -9 -23 -5 -35 10 -33 38 -41 94 -29 88 19 126 68 81 106 -11 9 -16 20 -11 23 10 6 3 61 -8 59 -3 -1 -58 -17 -121 -37z m107 -59 c5 -14 -88 -45 -101 -33 -13 13 2 29 37 39 39 12 59 10 64 -6z"/> <path d="M216 1868 c-11 -41 -7 -45 53 -58 72 -15 90 -25 75 -40 -9 -9 -29 -6 -78 8 -36 11 -68 17 -70 14 -2 -4 -6 -19 -9 -33 -6 -25 -4 -26 66 -42 98 -23 115 -22 129 8 9 19 9 28 0 37 -22 22 -12 27 28 13 l40 -14 8 31 8 32 -105 27 c-59 15 -113 30 -122 34 -12 4 -18 -1 -23 -17z"/> <path d="M554 1754 c-4 -26 -4 -87 -2 -136 5 -79 10 -99 46 -171 38 -77 114 -167 178 -212 21 -14 22 -13 28 23 18 113 -2 232 -56 335 -30 56 -160 207 -178 207 -5 0 -12 -21 -16 -46z m87 -56 c82 -88 136 -209 144 -317 4 -68 -2 -101 -20 -101 -21 0 -105 98 -134 157 -38 77 -49 116 -55 186 -4 58 2 127 12 127 2 0 26 -23 53 -52z"/> <path d="M2353 1726 c-77 -82 -125 -164 -148 -251 -15 -60 -18 -175 -6 -230 l7 -30 85 85 c120 120 158 206 159 361 0 83 -8 139 -20 139 -5 0 -39 -33 -77 -74z m72 -45 c5 -79 -21 -188 -57 -249 -40 -66 -115 -152 -133 -152 -28 0 -28 112 1 215 22 81 156 264 178 244 5 -4 10 -30 11 -58z"/> <path d="M2720 1708 c-35 -5 -70 -14 -77 -20 -18 -14 -16 -53 2 -68 12 -10 13 -15 4 -21 -7 -4 -9 -17 -5 -34 6 -22 11 -26 29 -22 12 3 55 9 95 13 69 6 73 8 68 28 -3 11 -6 27 -6 34 0 8 -7 11 -17 8 -10 -3 -44 -8 -75 -12 -48 -5 -58 -4 -58 9 0 15 40 27 90 27 47 0 57 8 52 40 -5 33 -2 33 -102 18z"/> <path d="M170 1654 c-7 -17 -7 -32 0 -44 7 -13 7 -21 0 -25 -5 -3 -10 -17 -10 -29 0 -20 6 -24 53 -30 120 -14 147 -1 147 72 0 31 -5 45 -22 56 -32 22 -38 20 -38 -14 0 -16 5 -30 10 -30 6 0 10 -7 10 -16 0 -9 -7 -14 -17 -12 -12 2 -20 16 -24 42 -7 44 -21 56 -67 56 -26 0 -34 -5 -42 -26z m80 -54 c9 -17 8 -20 -8 -20 -22 0 -46 23 -35 33 12 13 32 7 43 -13z"/> <path d="M2683 1511 c-27 -12 -43 -41 -43 -78 0 -42 20 -63 68 -74 48 -10 88 -4 115 19 24 21 23 93 -2 116 -22 20 -107 30 -138 17z m88 -61 c20 0 29 -5 29 -15 0 -13 -11 -15 -57 -13 -32 2 -58 8 -60 15 -4 12 24 23 45 17 8 -2 27 -4 43 -4z"/> <path d="M896 1463 c-70 -138 -74 -268 -14 -421 20 -50 25 -56 97 -93 42 -21 87 -47 100 -56 24 -18 25 -18 18 7 -28 98 -56 224 -62 275 -4 33 -17 83 -30 110 -12 28 -33 82 -45 120 -39 121 -34 116 -64 58z m71 -148 c25 -64 83 -317 83 -356 0 -14 -10 -12 -61 14 -54 27 -65 37 -84 82 -12 27 -26 65 -30 84 -13 59 -8 174 10 221 9 25 19 54 22 65 7 20 19 -2 60 -110z"/> <path d="M2047 1424 c-15 -47 -38 -109 -51 -138 -13 -28 -29 -89 -35 -136 -6 -47 -22 -125 -36 -174 -14 -49 -23 -91 -21 -93 1 -2 14 5 27 16 13 10 56 34 95 54 67 34 73 39 92 89 46 117 54 208 27 311 -12 48 -60 157 -68 157 -1 0 -15 -39 -30 -86z m85 -179 c1 -79 -28 -198 -54 -232 -11 -14 -119 -65 -125 -60 -1 2 2 26 7 53 6 27 17 90 26 139 8 50 24 109 34 132 11 24 20 46 20 50 0 5 6 20 14 34 7 14 16 39 20 55 8 28 8 28 33 -30 20 -47 25 -77 25 -141z"/> <path d="M329 1486 c-2 -3 -41 -6 -87 -7 l-82 -3 0 -34 0 -34 75 7 c63 6 75 4 75 -8 0 -21 -22 -27 -92 -27 -58 0 -60 -1 -54 -22 3 -13 6 -28 6 -33 0 -16 170 -2 181 16 10 17 12 53 2 63 -4 4 -6 25 -4 46 2 35 -6 50 -20 36z"/> <path d="M500 1380 c0 -5 4 -11 9 -14 4 -3 30 -54 56 -113 26 -59 68 -138 92 -175 l45 -68 48 0 c26 0 61 -3 78 -6 l31 -6 -19 36 c-10 21 -24 59 -31 86 -10 40 -21 54 -63 85 -28 21 -69 59 -91 85 -26 30 -60 56 -97 73 -32 14 -58 21 -58 17z m161 -136 c16 -17 46 -43 68 -58 27 -19 46 -43 57 -71 17 -47 16 -81 -4 -79 -6 1 -25 2 -40 3 -23 1 -37 12 -65 54 -37 53 -107 203 -107 228 0 13 41 -22 91 -77z"/> <path d="M2440 1362 c-35 -16 -70 -42 -95 -72 -22 -26 -63 -64 -91 -85 -42 -31 -53 -45 -63 -85 -7 -27 -21 -65 -31 -86 l-19 -36 31 6 c17 3 52 6 78 6 l48 0 45 68 c25 37 61 105 81 152 21 47 46 100 57 119 11 18 19 34 17 36 -2 1 -28 -10 -58 -23z m-23 -85 c-8 -18 -22 -50 -32 -72 -9 -22 -34 -68 -56 -101 -37 -57 -43 -62 -82 -66 -23 -3 -45 -3 -49 -1 -3 1 3 30 14 63 16 45 29 65 57 84 20 14 63 54 96 88 60 64 80 66 52 5z"/> <path d="M2770 1287 c0 -19 -2 -36 -5 -39 -3 -2 -44 4 -92 13 -116 24 -113 24 -113 -14 l0 -32 98 -18 c53 -10 109 -21 123 -24 25 -5 26 -2 33 49 3 29 9 63 12 76 6 19 3 22 -25 22 -28 0 -31 -3 -31 -33z"/> <path d="M307 1266 c3 -13 14 -27 25 -29 11 -3 18 -12 16 -19 -9 -26 -33 -17 -53 19 -22 41 -57 53 -95 33 -24 -13 -27 -61 -5 -80 8 -7 12 -17 9 -22 -3 -5 -3 -19 0 -32 l6 -23 77 19 c89 22 107 38 98 88 -8 43 -31 70 -60 70 -18 0 -21 -5 -18 -24z m-29 -63 c2 -8 -6 -13 -22 -13 -17 0 -26 5 -26 16 0 19 41 16 48 -3z"/> <path d="M1084 1125 c10 -82 32 -164 62 -233 l25 -59 47 4 c43 4 160 -15 207 -33 19 -8 19 -7 -2 26 -32 50 -148 174 -253 270 l-93 85 7 -60z m145 -116 c83 -83 141 -146 141 -154 0 -4 -30 -3 -66 0 -36 4 -77 8 -91 8 -21 0 -29 9 -54 64 -28 62 -52 167 -41 178 7 6 27 -12 111 -96z"/> <path d="M1755 1025 c-147 -147 -222 -237 -184 -223 45 17 175 40 214 36 l44 -3 26 57 c29 64 68 228 63 267 -3 23 -19 9 -163 -134z m110 -29 c-27 -94 -50 -133 -79 -133 -13 -1 -54 -4 -90 -8 -36 -3 -66 -4 -66 -2 0 10 69 86 155 170 86 84 90 86 93 61 2 -15 -4 -55 -13 -88z"/> <path d="M1335 1162 c-5 -4 -10 -35 -10 -70 0 -55 2 -62 20 -62 18 0 20 6 17 70 -4 69 -7 77 -27 62z"/> <path d="M1412 1158 c-28 -28 -2 -88 33 -74 28 10 15 -14 -17 -34 -27 -16 -29 -20 -12 -20 24 0 58 34 69 68 14 46 -41 92 -73 60z m43 -34 c0 -19 -5 -29 -15 -29 -16 0 -25 28 -16 51 10 25 31 10 31 -22z"/> <path d="M1500 1157 c0 -9 10 -12 30 -9 17 2 30 2 30 0 0 -3 -9 -31 -20 -62 -13 -38 -15 -56 -8 -54 10 4 47 106 48 131 0 4 -18 7 -40 7 -27 0 -40 -4 -40 -13z"/> <path d="M1622 1147 c-24 -26 -30 -85 -10 -105 19 -19 46 -14 63 12 20 30 5 66 -26 66 -27 0 -20 21 12 37 22 12 22 13 3 13 -11 0 -30 -10 -42 -23z m33 -72 c0 -43 -29 -40 -33 3 -3 28 0 33 15 30 13 -2 18 -12 18 -33z"/> <path d="M2560 1050 c-6 -12 -8 -30 -5 -41 7 -20 6 -20 -24 -5 -16 9 -34 16 -39 16 -8 0 -36 -50 -30 -55 2 -1 28 -12 58 -25 30 -12 81 -35 113 -51 l57 -27 15 29 15 29 -70 31 c-38 18 -70 35 -70 40 0 20 23 17 84 -11 l66 -29 15 28 14 28 -71 32 c-83 36 -113 39 -128 11z"/> <path d="M370 1011 c-74 -38 -96 -69 -81 -112 6 -18 19 -41 28 -51 18 -20 64 -24 93 -8 16 9 18 14 8 35 -8 19 -18 24 -42 22 -53 -3 -44 17 25 52 45 24 72 32 85 27 18 -7 18 -8 -3 -26 -27 -21 -28 -29 -9 -55 13 -18 15 -18 40 -2 33 22 36 81 5 121 -28 35 -77 34 -149 -3z"/> <path d="M613 969 c-18 -5 -33 -12 -33 -14 0 -2 13 -11 29 -20 16 -8 54 -36 84 -62 30 -27 96 -69 146 -96 l92 -47 38 31 c21 17 57 36 79 42 22 7 41 16 43 22 6 14 -148 107 -212 129 -62 21 -218 30 -266 15z m282 -49 c54 -21 145 -74 145 -85 0 -3 -14 -12 -32 -21 -18 -9 -38 -23 -46 -30 -7 -8 -23 -14 -34 -14 -32 0 -188 89 -235 134 l-43 41 28 5 c46 9 154 -6 217 -30z"/> <path d="M1455 946 c-19 -45 -19 -97 0 -141 32 -79 87 -45 92 57 5 76 -11 112 -50 116 -23 3 -30 -2 -42 -32z m65 -45 c9 -40 9 -55 -2 -78 -17 -36 -30 -32 -48 17 -11 33 -12 45 -2 60 7 11 12 27 12 35 0 8 6 15 14 15 9 0 19 -19 26 -49z"/> <path d="M2160 966 c-25 -7 -62 -20 -82 -29 -57 -24 -180 -106 -174 -116 3 -5 21 -12 41 -15 19 -4 55 -22 80 -41 l45 -35 91 47 c50 27 116 70 147 96 31 27 70 55 86 64 28 14 28 16 10 26 -29 17 -192 18 -244 3z m175 -15 c34 -3 -72 -92 -164 -139 -82 -42 -115 -50 -126 -32 -4 6 -25 20 -48 31 l-41 21 24 20 c36 29 128 73 180 86 63 16 102 19 175 13z"/> <path d="M2426 905 c-16 -24 -16 -26 9 -37 29 -13 31 -21 9 -39 -9 -7 -14 -22 -11 -36 2 -12 0 -20 -5 -17 -9 6 -48 -23 -48 -35 0 -4 33 -32 74 -63 l73 -57 23 24 22 23 -51 38 c-49 37 -63 65 -40 80 8 4 4 13 -12 25 l-24 18 36 -3 c19 -2 53 -15 75 -29 21 -15 48 -27 60 -27 20 0 54 37 54 59 0 14 -31 23 -44 12 -14 -11 -91 38 -91 59 0 10 -10 15 -27 15 -14 0 -30 3 -34 8 -14 14 -32 7 -48 -18z"/> <path d="M438 817 c-56 -43 -63 -85 -22 -128 34 -36 55 -36 110 -4 72 42 83 87 35 136 -38 38 -69 37 -123 -4z m102 -38 c0 -10 -78 -69 -92 -69 -22 0 -4 33 33 60 39 28 59 31 59 9z"/> <path d="M1120 786 c-71 -20 -114 -41 -182 -88 l-63 -43 55 -6 c30 -4 69 -12 85 -19 65 -25 125 -30 195 -16 75 16 184 67 193 91 8 19 11 20 -53 -13 -82 -43 -122 -53 -202 -54 -67 -1 -188 26 -188 41 0 13 90 60 144 75 100 29 265 19 320 -20 28 -19 126 -18 154 2 12 8 22 12 22 8 0 -3 7 0 16 7 22 18 191 24 263 9 61 -13 171 -73 153 -84 -73 -45 -224 -50 -322 -10 -35 14 -73 32 -84 40 -27 18 -37 18 -29 -1 9 -24 118 -75 195 -91 72 -15 113 -12 183 14 22 8 65 17 95 21 l55 6 -70 48 c-157 105 -334 124 -489 52 -41 -19 -92 -17 -141 5 -89 39 -217 50 -305 26z"/> <path d="M557 662 c-37 -37 -67 -70 -67 -74 0 -3 11 -13 25 -22 25 -17 26 -16 74 36 38 41 52 50 61 41 10 -9 1 -24 -39 -66 l-51 -54 24 -22 24 -22 42 50 c41 49 70 65 70 39 0 -7 -21 -34 -47 -60 l-47 -48 22 -23 23 -22 60 62 c69 72 74 99 22 123 -17 8 -34 25 -38 38 -4 15 -15 25 -35 28 -16 4 -27 11 -24 18 3 7 -4 20 -14 29 -17 16 -22 13 -85 -51z"/> <path d="M2328 684 c-61 -32 -64 -90 -9 -145 29 -29 47 -39 70 -39 41 0 81 39 81 79 0 34 -38 84 -81 106 -33 18 -27 18 -61 -1z m59 -76 c34 -32 43 -58 21 -58 -16 0 -78 61 -78 77 0 22 22 15 57 -19z"/> <path d="M1423 683 c-23 -8 -14 -54 16 -84 40 -39 82 -39 122 1 22 21 29 38 27 57 -4 38 -28 42 -28 5 0 -38 -23 -62 -58 -62 -38 0 -50 11 -59 51 -5 22 -13 34 -20 32z"/> <path d="M2169 621 l-23 -18 47 -59 c25 -32 44 -60 41 -63 -2 -3 -21 11 -42 30 -81 75 -77 73 -110 49 l-30 -22 69 -96 c38 -53 69 -100 69 -104 0 -8 16 -1 49 20 10 8 3 22 -33 68 -25 33 -46 63 -46 67 0 5 28 -16 63 -46 l62 -55 29 23 29 23 -72 101 c-40 55 -73 101 -75 101 -2 0 -14 -8 -27 -19z m-19 -133 c0 -6 -7 -5 -15 2 -8 7 -15 17 -15 22 0 6 7 5 15 -2 8 -7 15 -17 15 -22z"/> <path d="M810 531 c0 -4 -19 -41 -41 -80 -40 -69 -41 -72 -23 -86 30 -23 37 -18 72 45 18 33 36 60 41 60 21 0 18 -19 -14 -76 l-35 -62 26 -17 c14 -9 27 -15 28 -13 2 2 17 29 35 61 18 31 39 57 47 57 20 0 18 -5 -21 -76 l-36 -63 29 -15 29 -15 41 78 c24 45 40 86 36 95 -6 16 -40 31 -64 28 -8 -1 -20 8 -25 20 -6 13 -21 25 -34 26 -13 2 -33 12 -44 23 -22 20 -47 25 -47 10z"/> <path d="M1036 332 c-15 -43 -24 -86 -20 -96 7 -17 44 -31 66 -24 7 3 18 -1 23 -8 6 -7 19 -14 29 -16 16 -2 24 12 49 85 16 49 27 90 26 92 -2 2 -16 6 -30 10 -26 6 -28 4 -49 -59 -13 -40 -27 -66 -36 -66 -18 0 -18 5 7 79 12 34 20 64 18 66 -2 2 -16 6 -30 10 -26 6 -28 4 -53 -73z"/> <path d="M1420 370 c0 -15 7 -20 25 -20 14 0 28 -1 33 -2 4 -2 8 7 10 20 3 19 -1 22 -32 22 -29 0 -36 -4 -36 -20z"/> <path d="M1522 360 c3 -20 0 -30 -9 -30 -7 0 -13 -9 -13 -20 0 -11 7 -20 15 -20 12 0 15 -14 15 -63 0 -72 10 -87 57 -87 29 0 33 3 33 25 0 16 -6 25 -15 25 -11 0 -15 12 -15 50 0 28 5 50 10 50 6 0 10 9 10 20 0 11 -4 20 -10 20 -5 0 -10 14 -10 30 0 28 -3 30 -36 30 -35 0 -36 -1 -32 -30z"/> <path d="M1948 357 c-53 -23 -54 -25 -34 -52 13 -19 15 -19 57 0 24 10 45 20 47 21 6 3 -10 54 -17 53 -3 -1 -27 -10 -53 -22z"/> <path d="M1237 343 c-3 -10 -11 -51 -17 -92 -13 -78 -8 -90 32 -91 12 0 19 16 28 70 6 38 16 72 21 76 17 10 21 -26 10 -88 -6 -34 -10 -63 -8 -64 1 -1 15 -4 32 -6 l29 -3 13 85 c13 83 13 85 -8 103 -24 19 -45 22 -54 7 -3 -5 -11 -10 -16 -10 -6 0 -7 5 -4 10 3 6 0 10 -9 10 -8 0 -21 3 -29 6 -9 3 -17 -2 -20 -13z"/> <path d="M1732 351 c-10 -6 -13 -26 -10 -70 1 -33 0 -61 -4 -61 -5 0 -8 5 -8 11 0 6 -7 34 -15 63 -15 50 -17 52 -45 48 -17 -2 -30 -8 -30 -13 0 -5 19 -47 43 -95 39 -80 41 -86 25 -98 -26 -19 -23 -46 5 -46 45 0 65 25 71 90 19 194 19 180 -1 180 -10 0 -24 -4 -31 -9z"/> <path d="M1420 258 c0 -40 -3 -83 -6 -95 -6 -21 -3 -23 30 -23 l36 0 0 95 0 95 -30 0 -30 0 0 -72z"/> </g> </svg> 